<svg width="512" height="512" viewBox="0 0 512 512" fill="none" xmlns="http://www.w3.org/2000/svg">
<rect width="512" height="512" fill="#313244"/>
<circle cx="256" cy="256" r="224" fill="url(#paint0_linear_20_6)"/>
<path d="M162.56 347H122.88C119.637 347 117.248 346.317 115.712 344.952C114.347 343.416 113.664 341.027 113.664 337.784V171.896C113.664 168.653 114.347 166.349 115.712 164.984C117.248 163.448 119.637 162.68 122.88 162.68H237.056C240.299 162.68 242.603 163.448 243.968 164.984C245.504 166.349 246.272 168.653 246.272 171.896V202.36C246.272 205.603 245.504 207.992 243.968 209.528C242.603 210.893 240.299 211.576 237.056 211.576H171.776V238.2H216.32C219.563 238.2 221.867 238.968 223.232 240.504C224.768 241.869 225.536 244.173 225.536 247.416V278.136C225.536 281.379 224.768 283.768 223.232 285.304C221.867 286.669 219.563 287.352 216.32 287.352H171.776V337.784C171.776 341.027 171.008 343.416 169.472 344.952C168.107 346.317 165.803 347 162.56 347ZM320.81 347H281.13C277.887 347 275.498 346.317 273.962 344.952C272.597 343.416 271.914 341.027 271.914 337.784V171.896C271.914 168.653 272.597 166.349 273.962 164.984C275.498 163.448 277.887 162.68 281.13 162.68H395.306C398.549 162.68 400.853 163.448 402.218 164.984C403.754 166.349 404.522 168.653 404.522 171.896V202.36C404.522 205.603 403.754 207.992 402.218 209.528C400.853 210.893 398.549 211.576 395.306 211.576H330.026V238.2H374.57C377.813 238.2 380.117 238.968 381.482 240.504C383.018 241.869 383.786 244.173 383.786 247.416V278.136C383.786 281.379 383.018 283.768 381.482 285.304C380.117 286.669 377.813 287.352 374.57 287.352H330.026V337.784C330.026 341.027 329.258 343.416 327.722 344.952C326.357 346.317 324.053 347 320.81 347Z" fill="white"/>
<defs>
<linearGradient id="paint0_linear_20_6" x1="32" y1="480" x2="480" y2="32" gradientUnits="userSpaceOnUse">
<stop stop-color="#74C7EC"/>
<stop offset="1" stop-color="#CBA6F7"/>
</linearGradient>
</defs>
</svg>
